# xmcd
#
# Track frame offsets:
#	150
#	13569
#	28225
#	41850
#	57852
#	72928
#	84727
#	96976
#	108925
#	122324
#	134589
#	146639
#	161253
#	173780
#	188129
#	200797
#	214083
#	226181
#	238462
#	250160
#	263238
#	277928
#	292923
#	305980
#	318244
#
# Disc length: 4413 seconds
#
# Revision: 2
# Processed by: cddbd v1.4PL0 Copyright (c) Steve Scherf et al.
# Submitted via: audiograbber 1.81.03
#
DISCID=74113b19
DTITLE=Stan Getz - Bebop
DYEAR=2002
DGENRE=Jazz
TTITLE0=Gone With The Wind
TTITLE1=The Lady In Red
TTITLE2=S'Wonderful
TTITLE3=Four Brothers
TTITLE4=Always
TTITLE5=Don't Worry 'Bout Me
TTITLE6=And The Angels Swing
TTITLE7=Pardon My Bop
TTITLE8=As I Live I Bop
TTITLE9=Interlude In Bebop
TTITLE10=Diaper Pin
TTITLE11=Early Autumn
TTITLE12=T and S
TTITLE13=Five Brothers
TTITLE14=Indian Summer
TTITLE15=Long Island Sound
TTITLE16=Marcia
TTITLE17=Preservation
TTITLE18=Crazy Chords
TTITLE19=There's A Small Hotel
TTITLE20=I've Got You Under My Skin
TTITLE21=What's New
TTITLE22=You Stepped Out Of A Dream
TTITLE23=My Old Flame
TTITLE24=Yesterdays
EXTD=Compilation Prix Calin
EXTT0=
EXTT1=
EXTT2=
EXTT3=
EXTT4=
EXTT5=
EXTT6=
EXTT7=
EXTT8=
EXTT9=
EXTT10=
EXTT11=
EXTT12=
EXTT13=
EXTT14=
EXTT15=
EXTT16=
EXTT17=
EXTT18=
EXTT19=
EXTT20=
EXTT21=
EXTT22=
EXTT23=
EXTT24=
PLAYORDER=
